<?xml version="1.0" encoding="utf-8"?>
<!-- Generator: Adobe Illustrator 27.2.0, SVG Export Plug-In . SVG Version: 6.00 Build 0)  -->
<svg version="1.1" id="Layer_1" xmlns="http://www.w3.org/2000/svg" xmlns:xlink="http://www.w3.org/1999/xlink" x="0px" y="0px"
	 viewBox="0 0 387.13 70.71" style="enable-background:new 0 0 387.13 70.71;" xml:space="preserve">
<style type="text/css">
	.st0{fill:#45B035;}
	.st1{fill:#E60012;}
	.st2{fill:#E88200;}
	.st3{fill:#B2D581;}
	.st4{fill:#3B82C5;}
	.st5{fill:#65AADD;}
	.st6{fill:#F39800;}
	.st7{fill:#F8C270;}
</style>
<g>
	<g>
		<path class="st0" d="M108.75-227.39c0,2.4-1.93,4.35-4.34,4.35H36.46c-2.4,0-4.33-1.95-4.33-4.35v-67.94
			c0-2.41,1.93-4.35,4.33-4.35h67.95c2.4,0,4.34,1.94,4.34,4.35V-227.39L108.75-227.39z"/>
		<path class="st1" d="M192.06-227.39c0,2.4-1.94,4.35-4.35,4.35h-67.95c-2.4,0-4.35-1.95-4.35-4.35v-67.95
			c0-2.4,1.94-4.35,4.35-4.35h67.95c2.4,0,4.35,1.94,4.35,4.35V-227.39L192.06-227.39z"/>
		<path class="st2" d="M153.94-264.68c-14.93,0-27.07,12.14-27.07,27.05v7.74h54.14v-7.74
			C181.01-252.53,168.86-264.68,153.94-264.68"/>
		<path class="st2" d="M159.03-292.76c-3.33,0-4.06,6.53-4.19,10.56l-1.05-0.11l-1.05,0.11c-0.14-4.03-0.87-10.56-4.2-10.56
			c-0.66,0-1.43,0.26-2.31,0.84c-5.58,3.68-5.45,10.28-5.06,13.24c-6.98,4.28-11.69,11.89-11.69,20.67v3
			c5.34-7.72,14.22-12.8,24.31-12.8c10.07,0,18.97,5.08,24.3,12.8v-2.99c0-8.77-4.69-16.39-11.68-20.67
			c0.38-2.96,0.51-9.56-5.06-13.24C160.46-292.5,159.69-292.76,159.03-292.76"/>
		<path class="st3" d="M64.78-273.5c0,6.18-5.01,11.2-11.2,11.2c-6.17,0-11.18-5.02-11.18-11.2c0-6.17,5.01-11.19,11.18-11.19
			C59.77-284.7,64.78-279.68,64.78-273.5"/>
		<path class="st3" d="M51.36-292.44v3.47c0,1.12,0.9,2.03,2.03,2.03c1.14,0,2.05-0.91,2.05-2.03v-3.47c0-1.13-0.91-2.03-2.05-2.03
			C52.26-294.46,51.36-293.56,51.36-292.44"/>
		<path class="st3" d="M38.62-288.18c-0.79,0.79-0.79,2.08,0,2.88l2.45,2.45c0.8,0.78,2.08,0.78,2.88,0c0.79-0.8,0.79-2.09,0-2.88
			l-2.45-2.45C40.7-288.98,39.41-288.98,38.62-288.18"/>
		<path class="st3" d="M38.12-275.34h-3.46c-1.12,0-2.04,0.92-2.04,2.05c0,1.11,0.91,2.03,2.04,2.03h3.46
			c1.12,0,2.03-0.92,2.03-2.03C40.15-274.42,39.24-275.34,38.12-275.34"/>
		<path class="st3" d="M41.36-263.86l-2.45,2.44c-0.8,0.79-0.8,2.08,0,2.88c0.79,0.78,2.09,0.78,2.87,0l2.44-2.45
			c0.8-0.79,0.8-2.08,0-2.87C43.44-264.66,42.14-264.66,41.36-263.86"/>
		<path class="st3" d="M53.79-260.07c-1.12,0-2.04,0.9-2.04,2.03v3.47c0,1.13,0.91,2.03,2.04,2.03c1.13,0,2.04-0.9,2.04-2.03v-3.47
			C55.83-259.17,54.92-260.07,53.79-260.07"/>
		<path class="st3" d="M63.23-264.16c-0.79,0.8-0.79,2.08,0,2.89l2.45,2.44c0.78,0.8,2.08,0.8,2.87,0c0.8-0.79,0.8-2.08,0-2.88
			l-2.44-2.45C65.31-264.94,64.03-264.94,63.23-264.16"/>
		<path class="st3" d="M69.06-275.74c-1.12,0-2.04,0.91-2.04,2.04c0,1.13,0.91,2.02,2.04,2.02h3.46c1.13,0,2.04-0.89,2.04-2.02
			c0-1.13-0.91-2.04-2.04-2.04H69.06L69.06-275.74z"/>
		<path class="st3" d="M65.38-288.48l-2.44,2.45c-0.8,0.8-0.8,2.08,0,2.88c0.79,0.81,2.08,0.81,2.88,0l2.45-2.44
			c0.78-0.79,0.78-2.09,0-2.89C67.46-289.26,66.19-289.26,65.38-288.48"/>
		<path class="st3" d="M108.83-227.08c-5.6-2.8-13.26-5.35-23.53-7.14c-13.05-2.27-20.74-9.18-0.23-14.98
			c11.42-3.23,9.74-6.74,3.8-7.84l-8.3-0.81c8.71,2.44-3.12,4.61-12.44,5.84c-13.94,1.81-19.78,6.14-19.54,11.65
			c0.21,4.8,3.31,9.56,9.98,12.38c4.17,1.76,7.06,3.4,9.07,4.93h36.91C106.85-223.05,108.66-224.83,108.83-227.08L108.83-227.08z"/>
		<path class="st4" d="M359.46-227.39c0,2.39-1.95,4.36-4.35,4.36h-67.95c-2.4,0-4.34-1.96-4.34-4.36v-67.95
			c0-2.39,1.94-4.35,4.34-4.35h67.95c2.41,0,4.35,1.96,4.35,4.35V-227.39L359.46-227.39z"/>
		<polygon class="st5" points="352.84,-271.01 352.44,-270.6 290.38,-270.6 289.99,-271.01 289.99,-275.4 290.38,-275.8 
			352.44,-275.8 352.84,-275.4 352.84,-271.01 		"/>
		<polygon class="st5" points="349.37,-279.02 349.03,-278.77 293.8,-278.77 293.45,-279.02 293.45,-281.81 293.8,-282.06 
			349.03,-282.06 349.37,-281.81 349.37,-279.02 		"/>
		<polygon class="st5" points="343.18,-284.53 342.91,-284.31 299.91,-284.31 299.64,-284.53 299.64,-287 299.91,-287.23 
			342.91,-287.23 343.18,-287 343.18,-284.53 		"/>
		<polygon class="st5" points="352.84,-242.73 352.44,-242.34 290.38,-242.34 289.99,-242.73 289.99,-247.14 290.38,-247.53 
			352.44,-247.53 352.84,-247.14 352.84,-242.73 		"/>
		<polygon class="st5" points="352.84,-235.84 352.44,-235.44 290.38,-235.44 289.99,-235.84 289.99,-240.25 290.38,-240.64 
			352.44,-240.64 352.84,-240.25 352.84,-235.84 		"/>
		<polygon class="st5" points="303.11,-249.73 298.17,-249.73 298.17,-268.42 303.11,-268.42 303.11,-249.73 		"/>
		<polygon class="st5" points="313.48,-249.73 308.55,-249.73 308.55,-268.42 313.48,-268.42 313.48,-249.73 		"/>
		<polygon class="st5" points="323.87,-249.73 318.94,-249.73 318.94,-268.42 323.87,-268.42 323.87,-249.73 		"/>
		<polygon class="st5" points="334.26,-249.73 329.33,-249.73 329.33,-268.42 334.26,-268.42 334.26,-249.73 		"/>
		<polygon class="st5" points="344.65,-249.73 339.72,-249.73 339.72,-268.42 344.65,-268.42 344.65,-249.73 		"/>
		<path class="st6" d="M276.16-227.39c0,2.39-1.94,4.36-4.34,4.36h-67.97c-2.4,0-4.33-1.96-4.33-4.36v-67.94
			c0-2.4,1.93-4.36,4.33-4.36h67.97c2.4,0,4.34,1.96,4.34,4.36V-227.39L276.16-227.39z"/>
		<path class="st7" d="M247.09-249.81c-2.6-0.87-4.9-0.83-6.68,0.14c-1.24,0.68-2.08,1.73-2.6,2.46c-2.07,2.82-3.13,6.11-4.18,9.27
			l-0.57,1.75c-0.43,1.23-0.84,2.4-1.64,3.21l-2.05,0.66l-0.04-0.01c-0.84-0.38-1.81-0.02-2.2,0.83c-0.38,0.83-0.02,1.81,0.82,2.19
			l0.09,0.04c3.11,1.41,6.81,2.88,10.73,3.28l2.07,0.12c3.64,0,6.88-1.01,9.38-2.88c3.16-2.36,5.14-6.29,5.15-10.22
			c0.02-2.12-0.49-4.1-1.49-5.75C252.13-247.61,249.23-249.08,247.09-249.81 M239.11-229.3c-1.85-0.2-3.67-0.67-5.41-1.27l0.1-0.1
			c1.26-1.29,1.88-2.92,2.41-4.47l0.58-1.77l0.43-1.3c3.4,1.86,6.25,4.67,8.11,8.07l0.1,0.18c-1.66,0.58-3.3,0.74-4.6,0.74
			L239.11-229.3L239.11-229.3z M248.22-231.42l-0.97,0.64l-0.17-0.3c-2.08-3.84-5.32-6.99-9.19-9.02c0.69-1.87,1.48-3.61,2.61-5.16
			l1.52-1.49c0.95-0.52,2.35-0.49,4.03,0.08c2.26,0.77,4.04,2.07,4.99,3.65c0.68,1.13,1.02,2.5,1.02,4.01
			C252.02-236.09,250.56-233.17,248.22-231.42"/>
		<polygon class="st7" points="215.62,-260.98 214.38,-280.89 217.8,-281.1 219.03,-261.2 215.62,-260.98 		"/>
		<polygon class="st7" points="225.05,-262.86 219.67,-282.08 222.95,-282.99 228.34,-263.77 225.05,-262.86 		"/>
		<polygon class="st7" points="235.25,-266.25 224.17,-282.96 227.01,-284.85 238.09,-268.14 235.25,-266.25 		"/>
		<path class="st7" d="M265.07-251.92c-1.51-3.04-3.98-5.5-7-7.01l18.22-18.22v-4.71l-28.54,28.55v2.35h2.35l3.4-3.4
			c3.12,1.36,5.62,3.88,6.99,7.01l-3.41,3.4v2.35l1.19,0.49l1.18-0.49l16.84-16.84v-4.7L265.07-251.92L265.07-251.92z M262-248.87
			c-1.51-3.02-3.97-5.49-6.99-7l1.56-1.57c3.12,1.37,5.62,3.89,6.99,7.01L262-248.87L262-248.87z"/>
		<path class="st7" d="M208.77-252.84c2.88,1.27,5.99,1.92,9.19,1.92c7.11,0,14.86-3.33,20.73-8.93c6.64-6.32,12.43-7.02,17.53-7.63
			c2.45-0.29,3.93-1.2,4.41-2.67c0.74-2.22-1.3-4.3-1.71-4.7l-0.31-0.22c-0.81-0.48-19.8-11.55-30.63-15.61
			c-2.38-0.89-4.65-1.35-6.71-1.35c-7.05,0-9.64,5.12-9.69,5.23l-12.07,20.94v6.82l15.07-26.14c0.07-0.15,1.83-3.43,6.69-3.43
			c1.65,0,3.51,0.38,5.51,1.13c9.98,3.75,27.85,14.06,29.9,15.24l0.66,0.98c-0.18,0.1-0.6,0.29-1.52,0.4
			c-5.36,0.64-12.04,1.45-19.49,8.55c-5.24,5.01-12.12,7.99-18.37,8c-2.72,0-5.36-0.55-7.82-1.63c-3.32-1.47-6.28-2.21-8.78-2.21
			l-1.83,0.2v3.45l1.83-0.23C203.38-254.75,205.88-254.1,208.77-252.84L208.77-252.84z"/>
	</g>
	<g>
		<g>
			<path d="M66.93-175.44c0,5.44-6.84,8.92-15.15,8.92c-8.31,0-15.15-3.48-15.15-8.92c0-5.48,6.84-8.92,15.15-8.92
				c2.98,0,5.86,0.48,8.26,1.35v-9.05h-6.89c-1.81,3.53-5.67,5.7-10.8,5.7c-7.33,0-12.02-4.4-12.02-10.93
				c0-6.53,4.69-10.93,12.02-10.93c4.3,0,7.72,1.52,9.77,4.09h7.92v-3.92h6.84v31.82C66.93-175.96,66.93-175.7,66.93-175.44z
				 M47.78-197.3c0-4.4-2-7.23-5.42-7.23c-3.42,0-5.42,2.87-5.42,7.23c0,4.35,2,7.23,5.42,7.23
				C45.77-190.07,47.78-192.94,47.78-197.3z M60.33-175.44c0-2.61-3.18-5.01-8.55-5.01c-5.37,0-8.55,2.39-8.55,5.01
				c0,2.61,3.18,5.01,8.55,5.01C57.16-170.44,60.33-172.83,60.33-175.44z M60.04-200.21h-6.01c0.24,0.91,0.34,1.87,0.34,2.92
				c0,0.44,0,0.87-0.05,1.31h5.72V-200.21z"/>
			<path d="M109.14-167.61H80.81c-2.2,0-3.42-1.09-3.42-3.05v-7.4h24.09v-2.83H77.39v-3.7h24.09v-3.26H86.91v2.18h-6.35v-2.18h-9.53
				v-3.92h30.44v-6.97h-3.76v-4.14h3.76v-5.18h6.69v33.48H83.74v3.05h25.41V-167.61z M73.18-200.95c0-4.35,4.64-7.4,11.73-7.4
				c7.08,0,11.73,3.05,11.73,7.4c0,4.35-4.64,7.4-11.73,7.4C77.83-193.55,73.18-196.6,73.18-200.95z M79.54-200.95
				c0,2.18,1.96,3.92,5.38,3.92s5.37-1.74,5.37-3.92c0-2.18-1.95-3.92-5.37-3.92S79.54-203.13,79.54-200.95z"/>
			<path d="M152.38-184.37h-16.07l0.05,6.92h-6.84l-0.05-6.92h-17.15v-3.92h40.06V-184.37z M116.67-191.98v-15.67h31.27v15.67
				H116.67z M148.87-171.74v4.14h-28.73c-2.2,0-3.42-1.09-3.42-3.05v-11.1h6.84v10.01H148.87z M123.51-203.74v7.84h17.59v-7.84
				H123.51z"/>
			<path d="M189.76-188.37v20.77h-6.84v-4.79h-29.8v-4.14h10.65v-5.01c-4.79-1.09-8.16-4.57-8.16-9.27c0-5.66,4.89-9.58,11.24-9.58
				c6.35,0,11.19,3.92,11.19,9.58c0,4.7-3.37,8.23-8.16,9.27v5.01h13.04v-31.56h6.84v15.37h4.89v4.35H189.76z M154.83-201.04v-3.92
				h8.89v-4.35h6.84v4.35h8.21v3.92H154.83z M162.21-190.81c0,3.27,1.71,5.88,4.64,5.88c2.93,0,4.59-2.61,4.59-5.88
				c0-3.27-1.66-5.88-4.59-5.88C163.92-196.69,162.21-194.07,162.21-190.81z"/>
			<path d="M225.92-208.09h6.6v10.54h4.89v4.35h-4.89v25.64h-27.36c-2.2,0-3.42-1.09-3.42-3.05v-10.06h6.6v9.19h17.59v-13.54h-29.56
				v-3.92h6.84v-9.36h6.11v9.36h16.61V-208.09z M214.44-203.09h-16.12V-207h22.48v15.45h-6.35V-203.09z"/>
			<path d="M267.2-208.09h6.6v10.54h4.88v4.35h-4.88v17.46c0.05,0.26,0.05,0.48,0.05,0.74c0,5.44-7.33,8.49-16.12,8.49
				c-8.79,0-16.12-3.05-16.12-8.49c0-5.44,7.33-8.49,16.12-8.49c3.47,0,6.79,0.52,9.48,1.48v-3.87h-29.56v-3.92h6.84v-8.92h6.11
				v8.92h16.61V-208.09z M255.72-203.09H239.6V-207h22.47v15.02h-6.35V-203.09z M267.25-175.01c0-2.61-3.66-4.57-9.53-4.57
				c-5.86,0-9.53,1.96-9.53,4.57c0,2.61,3.66,4.57,9.53,4.57C263.59-170.44,267.25-172.39,267.25-175.01z"/>
			<path d="M292.42-192.16l6.89,16.11l-5.03,2.09l-5.62-14.45l-6.06,14.58l-5.08-2l7.33-16.28c0.39-0.91,0.63-1.65,0.63-2.66v-8.53
				h-6.5v-3.92h19.3v3.92h-6.5v8.49C291.78-193.81,292.03-193.07,292.42-192.16z M317.04-167.61h-6.21v-20.5h-3.81v20.5h-5.86
				v-40.49h5.86v15.63h3.81v-15.63h6.21V-167.61z"/>
			<path d="M356.37-193.55v25.95h-27.36c-2.2,0-3.42-1.09-3.42-3.05v-11.06h6.84v9.97h17.1v-15.24h-27.36v-20.24h22.04v3.92h-15.2
				v12.41h20.52v-17.2h6.84v10.19h4.89v4.35H356.37z"/>
		</g>
		<g>
			<path class="st0" d="M39.62-148.5l-4.25-7.23h2.16l2.93,5.16h0.31l2.93-5.16h2.16l-4.25,7.23v4.9h-2.01V-148.5z"/>
			<path d="M46.8-151.42c0.05-0.8,0.71-1.37,2.08-1.37h3.61c0.93,0,2.33,0.15,2.33,2.01v3.27h-5.87v2.52h5.7v1.39h-5.05
				c-0.71,0-2.7,0.2-2.81-2.12V-151.42z M48.96-151.4v2.5h3.69v-2.5H48.96z"/>
			<path d="M58.78-152.9h3.6c0.93,0,2.25,0.15,2.33,2.01c0.08,1.93,0.06,4.18,0,6.12c-0.03,0.96-1.08,1.31-2.07,1.31H59.5
				c-0.71,0-2.7,0.2-2.81-2.12c-0.09-1.88-0.08-4.06,0-5.94C56.74-152.33,57.4-152.9,58.78-152.9z M62.54-151.51h-3.69v6.66h3.69
				V-151.51z"/>
			<path d="M72.56-152.79c1.54,0,2.33,0.23,2.33,1.93v7.26h-2.16v-7.77h-3.71v7.77h-2.16v-9.19H72.56z"/>
			<path d="M76.89-151.42c0.03-0.8,0.71-1.37,2.08-1.37h5.82v11.01c0,1.17-1.08,1.5-1.95,1.5h-4.93v-1.47h4.71v-3H79.7
				c-0.71,0-2.69,0.2-2.81-2.12C76.79-148.59,76.81-149.53,76.89-151.42z M79.05-151.4v5.27h3.58v-5.27H79.05z"/>
			<path d="M88.03-143.61l-2.32-9.17h2.01l1.76,7.54h0.31l1.56-7.55l2.89-0.02l1.54,7.55h0.31l1.82-7.52h2.01l-2.47,9.17h-3.17
				l-1.31-7.21h-0.31l-1.39,7.21H88.03z"/>
			<path d="M103.1-152.9h3.6c0.93,0,2.25,0.15,2.33,2.01c0.08,1.93,0.06,4.18,0,6.12c-0.03,0.96-1.08,1.31-2.07,1.31h-3.13
				c-0.71,0-2.7,0.2-2.81-2.12c-0.09-1.88-0.08-4.06,0-5.94C101.06-152.33,101.73-152.9,103.1-152.9z M106.87-151.51h-3.69v6.66
				h3.69V-151.51z"/>
			<path d="M111.34-156.48h2.16v12.88h-2.16V-156.48z"/>
			<path class="st1" d="M127.25-155.73v1.39h-4.54v9.33h4.85v1.39h-4.2c-0.71,0-2.7,0.2-2.81-2.12c-0.09-1.88-0.08-6.73,0-8.62
				c0.05-0.8,0.71-1.37,2.08-1.37H127.25z"/>
			<path d="M131.43-143.61c-1.54,0-2.33-0.23-2.33-1.93v-7.26h2.16v7.77h3.71v-7.77h2.16v9.19H131.43z"/>
			<path d="M139.44-156.48h2.16v12.88h-2.16V-156.48z"/>
			<path d="M144.51-152.79v-2.93h2.16v2.93h2.32v1.54h-2.32v6.1h2.81v1.54h-3.03c-0.87,0-1.95-0.32-1.95-1.5v-6.15h-1.36v-1.54
				H144.51z"/>
			<path d="M153.35-143.61c-1.54,0-2.33-0.23-2.33-1.93v-7.26h2.16v7.77h3.71v-7.77h2.16v9.19H153.35z"/>
			<path d="M164.98-152.79c0.93,0,2.33,0.15,2.33,2.01v0.51h-1.85v-1.05h-2.16v7.72h-2.16v-9.19H164.98z"/>
			<path d="M168.47-151.42c0.05-0.8,0.71-1.37,2.08-1.37h3.61c0.93,0,2.33,0.15,2.33,2.01v3.27h-5.87v2.52h5.7v1.39h-5.05
				c-0.71,0-2.7,0.2-2.81-2.12V-151.42z M170.63-151.4v2.5h3.69v-2.5H170.63z"/>
			<path d="M185.28-150.8c-0.74-0.91-1.2-1.56-1.16-2.73c0.06-1.61,1.48-2.61,3.13-2.61c1.68,0,3.01,0.93,3.01,2.72
				c0,1.3-1.38,2.13-2.61,2.9c0.8,1.07,1.5,1.84,2.5,2.81c0.22-0.71,0.34-1.37,0.34-2.64h1.62c0,1.19-0.09,2.95-0.62,3.91
				c0.4,0.43,1,0.99,1.54,1.5l-1.11,1.16c-0.49-0.49-1.04-1.02-1.41-1.41c-0.91,0.91-1.96,1.48-3.43,1.48c-2.5,0-4.31-1.42-4.31-3.3
				C182.8-148.86,184.05-150.03,185.28-150.8z M187.1-145.29c1.13,0,1.75-0.42,2.24-1.08c-1.13-1.14-2.05-2.1-2.98-3.35
				c-0.74,0.52-1.71,1.47-1.71,2.7C184.65-146.01,185.62-145.29,187.1-145.29z M186.7-151.7c0.87-0.51,1.9-0.93,1.9-1.71
				c0-0.69-0.6-1.14-1.34-1.14c-0.71,0-1.42,0.4-1.42,1.1C185.84-152.67,186.32-152.25,186.7-151.7z"/>
			<path class="st6" d="M203.59-154.17v10.41h-2.01v-10.41h-2.86v-1.39h7.72v1.39H203.59z"/>
			<path d="M209.78-152.9h3.6c0.93,0,2.25,0.15,2.33,2.01c0.08,1.93,0.06,4.18,0,6.12c-0.03,0.96-1.08,1.31-2.07,1.31h-3.13
				c-0.71,0-2.7,0.2-2.81-2.12c-0.09-1.88-0.08-4.06,0-5.94C207.74-152.33,208.41-152.9,209.78-152.9z M213.55-151.51h-3.69v6.66
				h3.69V-151.51z"/>
			<path d="M220.05-143.61c-1.54,0-2.33-0.23-2.33-1.93v-7.26h2.16v7.77h3.71v-7.77h2.16v9.19H220.05z"/>
			<path d="M231.68-152.79c0.93,0,2.33,0.15,2.33,2.01v0.51h-1.85v-1.05h-2.16v7.72h-2.16v-9.19H231.68z"/>
			<path d="M235.89-157.07h1.39c0.25,0,0.38,0.14,0.38,0.39v1.39c0,0.25-0.14,0.39-0.38,0.39h-1.39c-0.25,0-0.38-0.14-0.38-0.39
				v-1.39C235.5-156.93,235.64-157.07,235.89-157.07z M235.5-152.79h2.16v9.19h-2.16V-152.79z"/>
			<path d="M239.67-143.61v-1.39h5.45v-2.78h-3.77c-1.07,0-1.76-0.59-1.78-1.62c-0.01-0.8-0.01-0.96,0-1.61
				c0.03-1.56,1.33-1.87,2.5-1.87h4.65v1.39h-4.99v2.32h3.97c0.94,0,1.53,0.42,1.58,1.53v2.07c0,1.28-1.17,1.96-2.5,1.96H239.67z"/>
			<path d="M259.54-152.79c1.55,0,2.33,0.23,2.33,1.93v7.26h-2.16v-7.8h-3.21v7.8h-2.16v-7.77h-3.2v7.77h-2.16v-9.19H259.54z"/>
			<path class="st4" d="M275.32-155.71v1.39h-4.79v3.4h4.63v1.39h-4.63v5.78h-2.01v-11.95H275.32z"/>
			<path d="M278.81-152.9h3.6c0.93,0,2.25,0.15,2.33,2.01c0.08,1.93,0.06,4.18,0,6.12c-0.03,0.96-1.08,1.31-2.07,1.31h-3.13
				c-0.71,0-2.7,0.2-2.81-2.12c-0.09-1.88-0.08-4.06,0-5.94C276.77-152.33,277.44-152.9,278.81-152.9z M282.58-151.51h-3.69v6.66
				h3.69V-151.51z"/>
			<path d="M289.08-143.61c-1.54,0-2.33-0.23-2.33-1.93v-7.26h2.16v7.77h3.71v-7.77h2.16v9.19H289.08z"/>
			<path d="M302.63-152.79c1.54,0,2.33,0.23,2.33,1.93v7.26h-2.16v-7.77h-3.71v7.77h-2.16v-9.19H302.63z"/>
			<path d="M315.12-143.61h-6.19c-1.05,0-2.04-0.4-2.07-1.42c-0.06-1.93-0.08-3.83,0-5.76c0.08-1.85,1.4-2.01,2.33-2.01h3.77v-4.43
				h2.16V-143.61z M312.96-151.4h-3.94v6.41h3.94V-151.4z"/>
			<path d="M317.13-147.84c0-1.47,0.66-1.96,2.81-1.96H323v-1.68h-5.48v-1.39h5.22c2.12,0,2.42,1.05,2.42,1.9v7.37h-5.95
				c-1.3,0-2.08-0.42-2.08-1.53V-147.84z M319.29-148.41v3.41H323v-3.41H319.29z"/>
			<path d="M327.75-152.79v-2.93h2.16v2.93h2.32v1.54h-2.32v6.1h2.81v1.54h-3.03c-0.86,0-1.95-0.32-1.95-1.5v-6.15h-1.36v-1.54
				H327.75z"/>
			<path d="M334.99-157.07h1.39c0.25,0,0.38,0.14,0.38,0.39v1.39c0,0.25-0.14,0.39-0.38,0.39h-1.39c-0.25,0-0.38-0.14-0.38-0.39
				v-1.39C334.61-156.93,334.74-157.07,334.99-157.07z M334.61-152.79h2.16v9.19h-2.16V-152.79z"/>
			<path d="M341.23-152.9h3.6c0.93,0,2.25,0.15,2.33,2.01c0.08,1.93,0.06,4.18,0,6.12c-0.03,0.96-1.08,1.31-2.07,1.31h-3.13
				c-0.71,0-2.7,0.2-2.81-2.12c-0.09-1.88-0.08-4.06,0-5.94C339.19-152.33,339.85-152.9,341.23-152.9z M345-151.51h-3.69v6.66H345
				V-151.51z"/>
			<path d="M355.02-152.79c1.54,0,2.33,0.23,2.33,1.93v7.26h-2.16v-7.77h-3.71v7.77h-2.16v-9.19H355.02z"/>
		</g>
	</g>
</g>
<g>
	<g>
		<path class="st0" d="M38.23,33.14c0,0.97-0.78,1.75-1.75,1.75H9.02c-0.97,0-1.75-0.78-1.75-1.75V5.7c0-0.97,0.78-1.76,1.75-1.76
			h27.45c0.97,0,1.75,0.79,1.75,1.76V33.14L38.23,33.14z"/>
		<path class="st1" d="M71.88,33.14c0,0.97-0.78,1.75-1.76,1.75H42.67c-0.97,0-1.75-0.78-1.75-1.75V5.69c0-0.97,0.79-1.76,1.75-1.76
			h27.45c0.97,0,1.76,0.79,1.76,1.76V33.14L71.88,33.14z"/>
		<path class="st2" d="M56.48,18.08c-6.03,0-10.94,4.9-10.94,10.93v3.13h21.87v-3.13C67.41,22.99,62.51,18.08,56.48,18.08"/>
		<path class="st2" d="M58.53,6.73c-1.34,0-1.64,2.64-1.69,4.27l-0.43-0.04L55.99,11c-0.05-1.63-0.35-4.27-1.7-4.27
			c-0.27,0-0.58,0.1-0.94,0.34c-2.25,1.49-2.2,4.15-2.04,5.35c-2.82,1.72-4.72,4.8-4.72,8.35v1.21c2.16-3.12,5.75-5.17,9.82-5.17
			c4.07,0,7.66,2.05,9.82,5.17v-1.21c0-3.54-1.9-6.62-4.72-8.35c0.16-1.2,0.21-3.86-2.04-5.35C59.11,6.84,58.81,6.73,58.53,6.73"/>
		<path class="st3" d="M20.46,14.51c0,2.5-2.02,4.52-4.52,4.52c-2.49,0-4.52-2.03-4.52-4.52c0-2.49,2.02-4.52,4.52-4.52
			C18.44,9.99,20.46,12.02,20.46,14.51"/>
		<path class="st3" d="M15.04,6.86v1.4c0,0.45,0.37,0.82,0.82,0.82c0.46,0,0.83-0.37,0.83-0.82v-1.4c0-0.46-0.37-0.82-0.83-0.82
			C15.4,6.05,15.04,6.41,15.04,6.86"/>
		<path class="st3" d="M9.9,8.59c-0.32,0.32-0.32,0.84,0,1.16l0.99,0.99c0.32,0.32,0.84,0.32,1.16,0c0.32-0.32,0.32-0.85,0-1.16
			l-0.99-0.99C10.73,8.26,10.21,8.26,9.9,8.59"/>
		<path class="st3" d="M9.69,13.77h-1.4c-0.45,0-0.82,0.37-0.82,0.83c0,0.45,0.37,0.82,0.82,0.82h1.4c0.45,0,0.82-0.37,0.82-0.82
			C10.51,14.14,10.14,13.77,9.69,13.77"/>
		<path class="st3" d="M11,18.41l-0.99,0.99c-0.32,0.32-0.32,0.84,0,1.17c0.32,0.31,0.84,0.31,1.16,0l0.99-0.99
			c0.33-0.32,0.33-0.84,0-1.16C11.84,18.09,11.32,18.09,11,18.41"/>
		<path class="st3" d="M16.02,19.94c-0.46,0-0.82,0.36-0.82,0.82v1.4c0,0.46,0.37,0.82,0.82,0.82c0.45,0,0.82-0.37,0.82-0.82v-1.4
			C16.84,20.31,16.48,19.94,16.02,19.94"/>
		<path class="st3" d="M19.83,18.29c-0.32,0.32-0.32,0.84,0,1.17l0.99,0.98c0.31,0.33,0.84,0.33,1.16,0c0.32-0.32,0.32-0.84,0-1.16
			L21,18.29C20.68,17.97,20.16,17.97,19.83,18.29"/>
		<path class="st3" d="M22.19,13.61c-0.45,0-0.82,0.37-0.82,0.82c0,0.46,0.37,0.82,0.82,0.82h1.4c0.45,0,0.82-0.36,0.82-0.82
			c0-0.46-0.37-0.82-0.82-0.82H22.19L22.19,13.61z"/>
		<path class="st3" d="M20.7,8.46l-0.98,0.99c-0.33,0.32-0.33,0.84,0,1.16c0.32,0.32,0.84,0.32,1.16,0l0.99-0.99
			c0.32-0.32,0.32-0.84,0-1.17C21.54,8.15,21.03,8.15,20.7,8.46"/>
		<path class="st3" d="M38.26,33.27c-2.26-1.13-5.36-2.16-9.51-2.88c-5.27-0.91-8.38-3.71-0.09-6.05c4.61-1.3,3.94-2.72,1.53-3.17
			l-3.35-0.33c3.52,0.99-1.26,1.87-5.03,2.36c-5.64,0.73-7.99,2.48-7.9,4.71c0.09,1.94,1.34,3.86,4.03,5
			c1.69,0.71,2.85,1.37,3.67,1.99h14.91C37.46,34.89,38.19,34.18,38.26,33.27L38.26,33.27z"/>
		<g>
			<path class="st4" d="M71.88,66.76c0,0.96-0.79,1.76-1.76,1.76H42.67c-0.97,0-1.75-0.79-1.75-1.76V39.31
				c0-0.97,0.78-1.76,1.75-1.76h27.45c0.97,0,1.76,0.79,1.76,1.76V66.76L71.88,66.76z"/>
			<polygon class="st5" points="69.2,49.14 69.04,49.31 43.97,49.31 43.81,49.14 43.81,47.37 43.97,47.21 69.04,47.21 69.2,47.37 
				69.2,49.14 			"/>
			<polygon class="st5" points="67.8,45.9 67.66,46.01 45.35,46.01 45.21,45.9 45.21,44.78 45.35,44.68 67.66,44.68 67.8,44.78 
				67.8,45.9 			"/>
			<polygon class="st5" points="65.3,43.68 65.19,43.77 47.82,43.77 47.71,43.68 47.71,42.68 47.82,42.59 65.19,42.59 65.3,42.68 
				65.3,43.68 			"/>
			<polygon class="st5" points="69.2,60.57 69.04,60.72 43.97,60.72 43.81,60.57 43.81,58.79 43.97,58.63 69.04,58.63 69.2,58.79 
				69.2,60.57 			"/>
			<polygon class="st5" points="69.2,63.35 69.04,63.51 43.97,63.51 43.81,63.35 43.81,61.57 43.97,61.41 69.04,61.41 69.2,61.57 
				69.2,63.35 			"/>
			<polygon class="st5" points="49.11,57.74 47.12,57.74 47.12,50.19 49.11,50.19 49.11,57.74 			"/>
			<polygon class="st5" points="53.3,57.74 51.31,57.74 51.31,50.19 53.3,50.19 53.3,57.74 			"/>
			<polygon class="st5" points="57.5,57.74 55.51,57.74 55.51,50.19 57.5,50.19 57.5,57.74 			"/>
			<polygon class="st5" points="61.7,57.74 59.7,57.74 59.7,50.19 61.7,50.19 61.7,57.74 			"/>
			<polygon class="st5" points="65.89,57.74 63.9,57.74 63.9,50.19 65.89,50.19 65.89,57.74 			"/>
			<path class="st6" d="M38.23,66.76c0,0.96-0.79,1.76-1.76,1.76H9.01c-0.97,0-1.75-0.79-1.75-1.76V39.32
				c0-0.97,0.78-1.76,1.75-1.76h27.46c0.97,0,1.76,0.79,1.76,1.76V66.76L38.23,66.76z"/>
			<path class="st7" d="M26.48,57.71c-1.05-0.36-1.98-0.34-2.7,0.06c-0.5,0.28-0.84,0.7-1.05,0.99c-0.84,1.14-1.26,2.47-1.69,3.75
				l-0.23,0.71c-0.17,0.5-0.34,0.97-0.66,1.3l-0.83,0.26l-0.02-0.01c-0.34-0.15-0.73-0.01-0.89,0.33c-0.16,0.34-0.01,0.73,0.33,0.88
				L18.78,66c1.25,0.57,2.75,1.17,4.33,1.33l0.84,0.05c1.47,0,2.78-0.41,3.79-1.17c1.28-0.96,2.08-2.54,2.08-4.13
				c0-0.85-0.2-1.66-0.6-2.32C28.52,58.6,27.34,58,26.48,57.71 M23.26,65.99c-0.75-0.08-1.48-0.27-2.18-0.51l0.04-0.04
				c0.51-0.52,0.76-1.18,0.97-1.81l0.23-0.71l0.17-0.52c1.38,0.75,2.53,1.89,3.28,3.26l0.04,0.07c-0.67,0.23-1.34,0.3-1.86,0.3
				L23.26,65.99L23.26,65.99z M26.94,65.14l-0.39,0.26l-0.07-0.12c-0.84-1.55-2.15-2.82-3.71-3.64c0.28-0.76,0.6-1.46,1.05-2.08
				l0.61-0.6c0.38-0.21,0.95-0.2,1.63,0.03c0.91,0.31,1.63,0.84,2.01,1.47c0.28,0.45,0.41,1.01,0.41,1.62
				C28.47,63.25,27.88,64.43,26.94,65.14"/>
			<polygon class="st7" points="13.77,53.19 13.27,45.15 14.65,45.07 15.15,53.1 13.77,53.19 			"/>
			<polygon class="st7" points="17.58,52.43 15.41,44.67 16.73,44.3 18.91,52.07 17.58,52.43 			"/>
			<polygon class="st7" points="21.7,51.06 17.22,44.32 18.37,43.55 22.84,50.3 21.7,51.06 			"/>
			<path class="st7" d="M33.74,56.85c-0.61-1.23-1.6-2.22-2.82-2.83l7.36-7.36v-1.9L26.75,56.29v0.95h0.95l1.37-1.38
				c1.26,0.55,2.27,1.57,2.83,2.83l-1.38,1.37v0.95l0.48,0.2l0.47-0.2l6.8-6.81v-1.9L33.74,56.85L33.74,56.85z M32.5,58.09
				c-0.61-1.22-1.6-2.22-2.82-2.83l0.63-0.63c1.26,0.55,2.27,1.57,2.83,2.83L32.5,58.09L32.5,58.09z"/>
			<path class="st7" d="M11,56.48c1.17,0.52,2.42,0.77,3.71,0.77c2.87,0,6-1.34,8.38-3.61c2.68-2.55,5.02-2.84,7.08-3.09
				c0.99-0.12,1.59-0.48,1.78-1.08c0.3-0.9-0.52-1.74-0.69-1.9l-0.12-0.09c-0.33-0.19-8-4.66-12.38-6.3
				c-0.96-0.36-1.88-0.54-2.71-0.54c-2.85,0-3.9,2.07-3.92,2.11l-4.88,8.46v2.76l6.09-10.57c0.03-0.06,0.74-1.39,2.7-1.39
				c0.67,0,1.42,0.16,2.23,0.46c4.03,1.52,11.25,5.68,12.08,6.16l0.27,0.4c-0.07,0.04-0.25,0.11-0.62,0.16
				c-2.17,0.26-4.86,0.58-7.88,3.45c-2.11,2.02-4.9,3.23-7.42,3.23c-1.1,0-2.16-0.22-3.16-0.66c-1.34-0.59-2.54-0.89-3.55-0.89
				l-0.74,0.08v1.4L8,55.71C8.83,55.71,9.83,55.98,11,56.48L11,56.48z"/>
		</g>
	</g>
	<g>
		<g>
			<path d="M116.95,35.82c0,4.94-6.22,8.11-13.76,8.11c-7.55,0-13.76-3.16-13.76-8.11c0-4.98,6.21-8.11,13.76-8.11
				c2.71,0,5.33,0.43,7.5,1.23v-8.23h-6.26c-1.64,3.2-5.15,5.18-9.81,5.18c-6.66,0-10.92-4-10.92-9.93c0-5.93,4.26-9.93,10.92-9.93
				c3.91,0,7.01,1.38,8.88,3.72h7.19V6.19h6.21v28.92C116.95,35.34,116.95,35.58,116.95,35.82z M99.55,15.96
				c0-3.99-1.82-6.57-4.93-6.57c-3.11,0-4.93,2.61-4.93,6.57c0,3.96,1.82,6.57,4.93,6.57C97.73,22.53,99.55,19.92,99.55,15.96z
				 M110.96,35.82c0-2.37-2.89-4.55-7.77-4.55c-4.88,0-7.77,2.18-7.77,4.55c0,2.37,2.89,4.55,7.77,4.55
				C108.07,40.37,110.96,38.19,110.96,35.82z M110.69,13.31h-5.46c0.22,0.83,0.31,1.7,0.31,2.65c0,0.4,0,0.79-0.04,1.19h5.19V13.31z
				"/>
			<path d="M155.3,42.94h-25.75c-2,0-3.11-0.99-3.11-2.77v-6.72h21.88v-2.57h-21.88v-3.36h21.88v-2.97H135.1v1.98h-5.77v-1.98h-8.66
				v-3.56h27.65v-6.33h-3.42V10.9h3.42V6.19h6.08v30.42h-22.19v2.77h23.08V42.94z M122.63,12.64c0-3.96,4.22-6.72,10.65-6.72
				c6.44,0,10.65,2.77,10.65,6.72c0,3.96-4.22,6.72-10.65,6.72C126.84,19.36,122.63,16.6,122.63,12.64z M128.4,12.64
				c0,1.98,1.78,3.56,4.88,3.56c3.11,0,4.88-1.58,4.88-3.56c0-1.98-1.78-3.56-4.88-3.56C130.17,9.08,128.4,10.66,128.4,12.64z"/>
			<path d="M194.58,27.71h-14.6l0.04,6.29h-6.21l-0.04-6.29h-15.58v-3.56h36.4V27.71z M162.13,20.79V6.55h28.41v14.24H162.13z
				 M191.38,39.18v3.76h-26.1c-2,0-3.11-0.99-3.11-2.77V30.08h6.21v9.1H191.38z M168.35,10.11v7.12h15.98v-7.12H168.35z"/>
			<path d="M228.53,24.07v18.87h-6.21v-4.35h-27.08v-3.76h9.68v-4.55c-4.35-0.99-7.41-4.15-7.41-8.43c0-5.14,4.44-8.7,10.21-8.7
				c5.77,0,10.17,3.56,10.17,8.7c0,4.27-3.06,7.48-7.41,8.43v4.55h11.85V6.15h6.21v13.96h4.44v3.96H228.53z M196.8,12.56V9h8.08
				V5.05h6.21V9h7.46v3.56H196.8z M203.5,21.86c0,2.97,1.55,5.34,4.22,5.34c2.66,0,4.17-2.37,4.17-5.34s-1.51-5.34-4.17-5.34
				C205.05,16.52,203.5,18.89,203.5,21.86z"/>
			<path d="M261.38,6.15h5.99v9.57h4.44v3.96h-4.44v23.3h-24.86c-2,0-3.11-0.99-3.11-2.77v-9.14h5.99v8.35h15.98v-12.3h-26.86v-3.56
				h6.21v-8.5h5.55v8.5h15.09V6.15z M250.95,10.7H236.3V7.14h20.42v14.04h-5.77V10.7z"/>
			<path d="M298.88,6.15h5.99v9.57h4.44v3.96h-4.44v15.86c0.04,0.24,0.04,0.44,0.04,0.67c0,4.94-6.66,7.71-14.65,7.71
				c-7.99,0-14.65-2.77-14.65-7.71s6.66-7.71,14.65-7.71c3.15,0,6.17,0.48,8.61,1.35v-3.52h-26.86v-3.56h6.21v-8.11h5.55v8.11h15.09
				V6.15z M288.45,10.7H273.8V7.14h20.42v13.65h-5.77V10.7z M298.93,36.21c0-2.37-3.33-4.15-8.66-4.15c-5.33,0-8.66,1.78-8.66,4.15
				c0,2.37,3.33,4.15,8.66,4.15C295.6,40.37,298.93,38.59,298.93,36.21z"/>
			<path d="M321.78,20.63l6.26,14.63l-4.57,1.9l-5.11-13.13l-5.5,13.25l-4.62-1.82l6.66-14.79c0.36-0.83,0.58-1.5,0.58-2.41V10.5
				h-5.9V6.94h17.54v3.56h-5.9v7.71C321.21,19.13,321.43,19.8,321.78,20.63z M344.16,42.94h-5.64V24.31h-3.46v18.63h-5.33V6.15h5.33
				v14.2h3.46V6.15h5.64V42.94z"/>
			<path d="M379.89,19.36v23.58h-24.86c-2,0-3.11-0.99-3.11-2.77V30.12h6.21v9.06h15.54V25.34h-24.86V6.94h20.02v3.56h-13.81v11.27
				h18.64V6.15h6.21v9.26h4.44v3.96H379.89z"/>
		</g>
		<g>
			<path class="st0" d="M92.13,60.29l-3.86-6.57h1.96l2.67,4.69h0.28l2.67-4.69h1.96l-3.86,6.57v4.45h-1.82V60.29z"/>
			<path d="M98.65,57.64c0.04-0.73,0.65-1.25,1.89-1.25h3.28c0.84,0,2.12,0.14,2.12,1.82v2.97h-5.33v2.29h5.18v1.26h-4.59
				c-0.65,0-2.46,0.18-2.55-1.92V57.64z M100.62,57.65v2.27h3.35v-2.27H100.62z"/>
			<path d="M109.54,56.29h3.27c0.84,0,2.05,0.14,2.12,1.83c0.07,1.75,0.06,3.8,0,5.55c-0.03,0.87-0.98,1.19-1.88,1.19h-2.85
				c-0.65,0-2.46,0.18-2.55-1.92c-0.08-1.71-0.07-3.69,0-5.4C107.69,56.81,108.29,56.29,109.54,56.29z M112.96,57.56h-3.35v6.05
				h3.35V57.56z"/>
			<path d="M122.06,56.39c1.4,0,2.12,0.21,2.12,1.75v6.59h-1.96v-7.06h-3.37v7.06h-1.96v-8.35H122.06z"/>
			<path d="M125.99,57.64c0.03-0.73,0.64-1.25,1.89-1.25h5.29v10c0,1.07-0.98,1.36-1.77,1.36h-4.48v-1.33h4.28V63.7h-2.67
				c-0.65,0-2.44,0.18-2.55-1.92C125.9,60.21,125.92,59.35,125.99,57.64z M127.95,57.65v4.78h3.25v-4.78H127.95z"/>
			<path d="M136.12,64.74l-2.1-8.33h1.82l1.6,6.85h0.28l1.42-6.86l2.62-0.01l1.4,6.86h0.28l1.66-6.83h1.82l-2.24,8.33h-2.88
				l-1.19-6.55h-0.28l-1.26,6.55H136.12z"/>
			<path d="M149.81,56.29h3.27c0.84,0,2.05,0.14,2.12,1.83c0.07,1.75,0.06,3.8,0,5.55c-0.03,0.87-0.98,1.19-1.88,1.19h-2.85
				c-0.65,0-2.45,0.18-2.55-1.92c-0.08-1.71-0.07-3.69,0-5.4C147.95,56.81,148.56,56.29,149.81,56.29z M153.23,57.56h-3.35v6.05
				h3.35V57.56z"/>
			<path d="M157.29,53.04h1.96v11.7h-1.96V53.04z"/>
			<path class="st1" d="M171.74,53.73v1.26h-4.12v8.47h4.41v1.26h-3.82c-0.65,0-2.46,0.18-2.55-1.92c-0.08-1.71-0.07-6.12,0-7.83
				c0.04-0.73,0.65-1.25,1.89-1.25H171.74z"/>
			<path d="M175.54,64.74c-1.4,0-2.12-0.21-2.12-1.75v-6.59h1.96v7.06h3.37v-7.06h1.96v8.35H175.54z"/>
			<path d="M182.82,53.04h1.96v11.7h-1.96V53.04z"/>
			<path d="M187.42,56.39v-2.67h1.96v2.67h2.1v1.4h-2.1v5.54h2.55v1.4h-2.75c-0.79,0-1.77-0.29-1.77-1.36V57.8h-1.24v-1.4H187.42z"
				/>
			<path d="M195.46,64.74c-1.4,0-2.12-0.21-2.12-1.75v-6.59h1.96v7.06h3.37v-7.06h1.96v8.35H195.46z"/>
			<path d="M206.02,56.39c0.84,0,2.12,0.14,2.12,1.82v0.46h-1.68v-0.95h-1.96v7.01h-1.96v-8.35H206.02z"/>
			<path d="M209.19,57.64c0.04-0.73,0.65-1.25,1.89-1.25h3.28c0.84,0,2.12,0.14,2.12,1.82v2.97h-5.33v2.29h5.18v1.26h-4.59
				c-0.65,0-2.46,0.18-2.55-1.92V57.64z M211.15,57.65v2.27h3.35v-2.27H211.15z"/>
			<path d="M224.46,58.2c-0.67-0.83-1.1-1.42-1.05-2.48c0.06-1.46,1.35-2.37,2.85-2.37c1.53,0,2.74,0.84,2.74,2.47
				c0,1.18-1.25,1.94-2.37,2.64c0.73,0.97,1.36,1.67,2.27,2.55c0.2-0.65,0.31-1.25,0.31-2.4h1.47c0,1.08-0.08,2.68-0.56,3.55
				c0.36,0.39,0.91,0.9,1.4,1.36l-1.01,1.05c-0.45-0.45-0.94-0.93-1.28-1.28c-0.83,0.83-1.78,1.35-3.11,1.35
				c-2.27,0-3.92-1.29-3.92-3C222.2,59.97,223.34,58.9,224.46,58.2z M226.12,63.21c1.02,0,1.58-0.38,2.03-0.98
				c-1.03-1.04-1.87-1.91-2.71-3.05c-0.67,0.48-1.56,1.33-1.56,2.46C223.88,62.55,224.77,63.21,226.12,63.21z M225.75,57.39
				c0.79-0.46,1.72-0.84,1.72-1.56c0-0.63-0.55-1.04-1.22-1.04c-0.64,0-1.29,0.37-1.29,1C224.96,56.5,225.4,56.88,225.75,57.39z"/>
			<path class="st6" d="M241.1,55.14v9.46h-1.83v-9.46h-2.59v-1.26h7.01v1.26H241.1z"/>
			<path d="M246.72,56.29h3.27c0.84,0,2.05,0.14,2.12,1.83c0.07,1.75,0.06,3.8,0,5.55c-0.03,0.87-0.98,1.19-1.88,1.19h-2.85
				c-0.65,0-2.46,0.18-2.55-1.92c-0.08-1.71-0.07-3.69,0-5.4C244.87,56.81,245.47,56.29,246.72,56.29z M250.14,57.56h-3.35v6.05
				h3.35V57.56z"/>
			<path d="M256.04,64.74c-1.4,0-2.12-0.21-2.12-1.75v-6.59h1.96v7.06h3.37v-7.06h1.96v8.35H256.04z"/>
			<path d="M266.61,56.39c0.84,0,2.12,0.14,2.12,1.82v0.46h-1.68v-0.95h-1.96v7.01h-1.96v-8.35H266.61z"/>
			<path d="M270.44,52.51h1.26c0.22,0,0.35,0.13,0.35,0.35v1.26c0,0.22-0.13,0.35-0.35,0.35h-1.26c-0.22,0-0.35-0.13-0.35-0.35
				v-1.26C270.08,52.63,270.21,52.51,270.44,52.51z M270.08,56.39h1.96v8.35h-1.96V56.39z"/>
			<path d="M273.87,64.74v-1.26h4.95v-2.53h-3.42c-0.97,0-1.6-0.53-1.61-1.47c-0.01-0.73-0.01-0.87,0-1.46
				c0.03-1.42,1.21-1.7,2.27-1.7h4.22v1.26h-4.53v2.11h3.61c0.86,0,1.39,0.38,1.43,1.39v1.88c0,1.16-1.07,1.78-2.27,1.78H273.87z"/>
			<path d="M291.92,56.39c1.4,0,2.12,0.21,2.12,1.75v6.59h-1.96v-7.08h-2.92v7.08h-1.96v-7.06h-2.9v7.06h-1.96v-8.35H291.92z"/>
			<path class="st4" d="M306.26,53.74V55h-4.35v3.09h4.21v1.26h-4.21v5.25h-1.82V53.74H306.26z"/>
			<path d="M309.42,56.29h3.27c0.84,0,2.05,0.14,2.12,1.83c0.07,1.75,0.05,3.8,0,5.55c-0.03,0.87-0.98,1.19-1.88,1.19h-2.85
				c-0.65,0-2.46,0.18-2.55-1.92c-0.08-1.71-0.07-3.69,0-5.4C307.57,56.81,308.18,56.29,309.42,56.29z M312.85,57.56h-3.35v6.05
				h3.35V57.56z"/>
			<path d="M318.75,64.74c-1.4,0-2.12-0.21-2.12-1.75v-6.59h1.96v7.06h3.37v-7.06h1.96v8.35H318.75z"/>
			<path d="M331.07,56.39c1.4,0,2.12,0.21,2.12,1.75v6.59h-1.96v-7.06h-3.37v7.06h-1.96v-8.35H331.07z"/>
			<path d="M342.41,64.74h-5.62c-0.95,0-1.85-0.36-1.88-1.29c-0.05-1.75-0.07-3.48,0-5.23c0.07-1.68,1.28-1.82,2.12-1.82h3.42v-4.03
				h1.96V64.74z M340.45,57.65h-3.58v5.82h3.58V57.65z"/>
			<path d="M344.23,60.89c0-1.33,0.6-1.78,2.55-1.78h2.78v-1.53h-4.98v-1.26h4.74c1.92,0,2.2,0.95,2.2,1.73v6.69h-5.4
				c-1.18,0-1.89-0.38-1.89-1.39V60.89z M346.2,60.38v3.1h3.37v-3.1H346.2z"/>
			<path d="M353.88,56.39v-2.67h1.96v2.67h2.1v1.4h-2.1v5.54h2.55v1.4h-2.75c-0.79,0-1.77-0.29-1.77-1.36V57.8h-1.23v-1.4H353.88z"
				/>
			<path d="M360.46,52.51h1.26c0.22,0,0.35,0.13,0.35,0.35v1.26c0,0.22-0.12,0.35-0.35,0.35h-1.26c-0.22,0-0.35-0.13-0.35-0.35
				v-1.26C360.11,52.63,360.24,52.51,360.46,52.51z M360.11,56.39h1.96v8.35h-1.96V56.39z"/>
			<path d="M366.13,56.29h3.27c0.84,0,2.05,0.14,2.12,1.83c0.07,1.75,0.05,3.8,0,5.55c-0.03,0.87-0.98,1.19-1.88,1.19h-2.85
				c-0.65,0-2.46,0.18-2.55-1.92c-0.08-1.71-0.07-3.69,0-5.4C364.28,56.81,364.88,56.29,366.13,56.29z M369.55,57.56h-3.35v6.05
				h3.35V57.56z"/>
			<path d="M378.65,56.39c1.4,0,2.12,0.21,2.12,1.75v6.59h-1.96v-7.06h-3.37v7.06h-1.96v-8.35H378.65z"/>
		</g>
	</g>
</g>
<g>
	<path d="M208.37,258.29l3.35,5.96l-1.82,1.19l-3.08-5.44l-3.17,5.85l-1.82-1.19l3.44-6.36c0.2-0.38,0.29-0.68,0.29-1.12v-5.04h2.52
		v5.02C208.08,257.61,208.16,257.91,208.37,258.29z M215.63,260.07v8.73h-2.52v-16.75h2.52v6.21h1.8v1.8H215.63z"/>
	<path d="M232.82,261.5h-14.76v-1.62h3.78v-1.78c-1.33-0.61-2.18-1.6-2.18-2.9c0-2.25,2.59-3.58,5.74-3.58
		c3.11,0,5.76,1.31,5.76,3.58c0,1.28-0.83,2.25-2.12,2.86v1.82h3.78V261.5z M231.38,265.82c0,2.38-2.79,3.56-5.94,3.56
		c-3.15,0-5.94-1.19-5.94-3.56c0-2.43,2.79-3.57,5.94-3.57C228.59,262.25,231.38,263.39,231.38,265.82z M228.86,265.84
		c0-1.1-1.26-1.96-3.42-1.96c-2.16,0-3.42,0.86-3.42,1.96c0,1.03,1.26,1.93,3.42,1.93C227.6,267.76,228.86,266.86,228.86,265.84z
		 M222.18,255.2c0,1.17,1.33,1.96,3.22,1.96c1.89,0,3.24-0.79,3.24-1.96c0-1.17-1.35-1.96-3.24-1.96
		C223.51,253.23,222.18,254.02,222.18,255.2z M226.79,259.88v-1.17c-0.45,0.05-0.92,0.09-1.39,0.09c-0.45,0-0.9-0.04-1.31-0.09v1.17
		H226.79z"/>
	<path d="M240.02,258.83l3.56,5.42l-1.93,1.42l-3.33-5.42l-3.19,5.74l-2.07-1.31l3.6-5.82c0.31-0.5,0.4-0.97,0.4-1.57v-5.15h2.52
		v5.11C239.58,257.86,239.69,258.33,240.02,258.83z M247.85,268.81h-2.52v-9.24h-3.08v-1.8h3.08v-5.71h2.52V268.81z"/>
	<path d="M254.61,259.01l2.74,6.14l-2.02,1.03l-2.16-5.62l-2.32,5.67l-1.94-1.12l2.81-6.09c0.18-0.38,0.23-0.68,0.23-1.1v-2.81
		h-2.36v-1.62h2.25v-1.8h2.61v1.8h2.25v1.62h-2.32v2.79C254.38,258.33,254.45,258.63,254.61,259.01z M260.09,252.06v16.75h-2.16v-9
		h-1.89V258h1.89v-5.94H260.09z M263.6,268.81h-2.34v-16.75h2.34V268.81z"/>
	<path d="M270.79,256.02h1.6c0.31,0,0.47,0.16,0.47,0.47v1.64c0,0.31-0.16,0.47-0.47,0.47h-1.6c-0.29,0-0.45-0.16-0.45-0.47v-1.64
		C270.34,256.19,270.5,256.02,270.79,256.02z M270.79,262.87h1.6c0.31,0,0.47,0.16,0.47,0.47v1.64c0,0.31-0.16,0.47-0.47,0.47h-1.6
		c-0.29,0-0.45-0.16-0.45-0.47v-1.64C270.34,263.03,270.5,262.87,270.79,262.87z"/>
	<path d="M283.3,253.05l4.05,9.58h0.36l4.05-9.58h3.69v14.13h-2.25v-11.31h-0.36l-4.16,9.65h-2.34l-4.12-9.65h-0.36v11.31h-2.25
		v-14.13H283.3z"/>
	<path d="M297.34,262.25c0-1.71,0.77-2.29,3.28-2.29h3.56V258h-6.39v-1.62h6.08c2.47,0,2.83,1.22,2.83,2.21v8.59h-6.93
		c-1.51,0-2.43-0.49-2.43-1.78V262.25z M299.86,261.59v3.98h4.32v-3.98H299.86z"/>
	<path d="M318.04,264.49c-0.09,2.16-1.64,2.34-2.72,2.34h-4.03v4.23h-2.52v-14.58h6.86c1.15,0,2.38,0.41,2.41,1.53
		C318.12,260.25,318.13,262.23,318.04,264.49z M311.29,258.09v7.11h4.23v-7.11H311.29z"/>
	<path d="M322.43,256.35h4.2c1.08,0,2.63,0.18,2.72,2.34c0.09,2.25,0.07,4.88,0,7.13c-0.04,1.12-1.26,1.53-2.41,1.53h-3.65
		c-0.83,0-3.15,0.23-3.28-2.47c-0.11-2.2-0.09-4.73,0-6.93C320.06,257.01,320.83,256.35,322.43,256.35z M326.83,257.97h-4.3v7.76
		h4.3V257.97z"/>
	<path d="M344.2,265.24c0.02,0.11,0.02,0.21,0.02,0.32c0,2.25-2.52,3.69-5.58,3.69s-5.58-1.44-5.58-3.69c0-2.27,2.52-3.69,5.58-3.69
		c1.1,0,2.16,0.2,3.04,0.56v-1.91H331.6v-8.1h8.12v1.62h-5.6v4.86h7.56v-6.84h2.52v3.83h1.8v1.8h-1.8V265.24z M341.79,265.57
		c0-1.08-1.17-2.07-3.15-2.07s-3.15,0.99-3.15,2.07c0,1.08,1.17,2.07,3.15,2.07S341.79,266.65,341.79,265.57z"/>
	<path d="M351.16,260.85c-2.7,0-4.43-1.82-4.43-4.43c0-2.61,1.73-4.43,4.43-4.43c2.7,0,4.43,1.82,4.43,4.43
		C355.59,259.03,353.86,260.85,351.16,260.85z M360.31,268.81h-10.28c-0.81,0-1.26-0.45-1.26-1.26v-4.93h2.52v4.48h6.5v-15.03h2.52
		V268.81z M351.16,259.32c1.26,0,2-1.19,2-2.9c0-1.71-0.74-2.9-2-2.9c-1.26,0-2,1.19-2,2.9
		C349.16,258.13,349.9,259.32,351.16,259.32z"/>
	<path d="M376.42,268.81h-2.52v-3.24h-9.18c-0.81,0-1.26-0.45-1.26-1.26v-6.21h5.4v-4.05h-5.49v-1.62h8.01v7.29h-5.4v4.14h7.92
		v-11.79h2.52V268.81z"/>
	<path d="M378.49,260.16v-7.83h2.52v1.98h3.15v1.8h-3.15v2.43h3.6v-6.21h2.52v7.83H378.49z M382.63,267.1h9.2v1.71h-10.46
		c-0.81,0-1.26-0.45-1.26-1.26v-3.24H389v-1.17h-8.89v-1.62H389v-9.45h2.47v4.05h1.8v1.8h-1.8v7.92h-8.84V267.1z"/>
	<path d="M395.1,261.37l-1.48-1.37l3.28-3.64c0.23-0.27,0.34-0.52,0.34-0.88v-1.44h-3.21v-1.62h8.82v1.62h-3.21v1.42
		c0,0.36,0.11,0.61,0.34,0.88l3.08,3.42l-1.48,1.39l-3.15-3.56L395.1,261.37z M407.56,268.81h-10.26c-0.81,0-1.26-0.45-1.26-1.26
		v-4.93h2.52v4.48h6.48v-10.03h-2.72v-1.84h2.72v-3.17h2.52V268.81z"/>
	<path d="M424.35,267.24h-14.73v-1.71h6.1v-4.5h2.52v4.5h6.1V267.24z M410.4,261.06l4.97-4.88c0.27-0.27,0.38-0.52,0.38-0.88v-2.88
		h2.52v2.88c0,0.36,0.11,0.61,0.38,0.88l4.95,4.84l-1.53,1.55l-5.08-4.91l-5.1,4.91L410.4,261.06z"/>
</g>
</svg>
